<mxfile host="Electron" modified="2024-07-06T17:32:49.866Z" agent="Mozilla/5.0 (X11; Linux x86_64) AppleWebKit/537.36 (KHTML, like Gecko) draw.io/24.5.3 Chrome/124.0.6367.207 Electron/30.0.6 Safari/537.36" etag="unRQtREjWm_5kaQvW_rM" version="24.5.3" type="device">
  <diagram name="Page-1" id="fQ_WgQiGJqsnwwl_7qo3">
    <mxGraphModel dx="5792" dy="3720" grid="1" gridSize="10" guides="1" tooltips="1" connect="1" arrows="1" fold="1" page="0" pageScale="1" pageWidth="827" pageHeight="1169" math="0" shadow="0">
      <root>
        <mxCell id="0" />
        <mxCell id="1" parent="0" />
        <mxCell id="6QwXeuThkFD-9IxJBqtr-515" value="" style="rounded=0;whiteSpace=wrap;html=1;fillColor=none;strokeColor=none;" parent="1" vertex="1">
          <mxGeometry x="-180" y="-395" width="2265" height="1630" as="geometry" />
        </mxCell>
        <mxCell id="6QwXeuThkFD-9IxJBqtr-121" value="" style="endArrow=none;html=1;rounded=0;strokeWidth=6;strokeColor=#7E3CF0;" parent="1" edge="1">
          <mxGeometry width="50" height="50" relative="1" as="geometry">
            <mxPoint x="260" y="370.16" as="sourcePoint" />
            <mxPoint x="460" y="369.8" as="targetPoint" />
          </mxGeometry>
        </mxCell>
        <mxCell id="6QwXeuThkFD-9IxJBqtr-122" value="" style="endArrow=none;html=1;rounded=0;strokeWidth=6;strokeColor=#7E3CF0;" parent="1" edge="1">
          <mxGeometry width="50" height="50" relative="1" as="geometry">
            <mxPoint x="260" y="350.16" as="sourcePoint" />
            <mxPoint x="460" y="349.8" as="targetPoint" />
          </mxGeometry>
        </mxCell>
        <mxCell id="6QwXeuThkFD-9IxJBqtr-123" value="" style="endArrow=none;html=1;rounded=0;strokeWidth=6;strokeColor=#7E3CF0;" parent="1" edge="1">
          <mxGeometry width="50" height="50" relative="1" as="geometry">
            <mxPoint x="260" y="490.16" as="sourcePoint" />
            <mxPoint x="460" y="489.8" as="targetPoint" />
          </mxGeometry>
        </mxCell>
        <mxCell id="6QwXeuThkFD-9IxJBqtr-124" value="" style="endArrow=none;html=1;rounded=0;strokeWidth=6;strokeColor=#7E3CF0;" parent="1" edge="1">
          <mxGeometry width="50" height="50" relative="1" as="geometry">
            <mxPoint x="260" y="470.16" as="sourcePoint" />
            <mxPoint x="460" y="469.8" as="targetPoint" />
          </mxGeometry>
        </mxCell>
        <mxCell id="6QwXeuThkFD-9IxJBqtr-125" value="" style="endArrow=none;html=1;rounded=0;strokeWidth=6;strokeColor=#7E3CF0;" parent="1" edge="1">
          <mxGeometry width="50" height="50" relative="1" as="geometry">
            <mxPoint x="1580" y="489.74" as="sourcePoint" />
            <mxPoint x="1660" y="489.74" as="targetPoint" />
          </mxGeometry>
        </mxCell>
        <mxCell id="6QwXeuThkFD-9IxJBqtr-126" value="" style="endArrow=none;html=1;rounded=0;strokeWidth=6;strokeColor=#7E3CF0;" parent="1" edge="1">
          <mxGeometry width="50" height="50" relative="1" as="geometry">
            <mxPoint x="1580" y="469.74" as="sourcePoint" />
            <mxPoint x="1660" y="469.74" as="targetPoint" />
          </mxGeometry>
        </mxCell>
        <mxCell id="6QwXeuThkFD-9IxJBqtr-127" value="" style="endArrow=none;html=1;rounded=0;strokeWidth=6;strokeColor=#7E3CF0;" parent="1" edge="1">
          <mxGeometry width="50" height="50" relative="1" as="geometry">
            <mxPoint x="1580" y="349.74" as="sourcePoint" />
            <mxPoint x="1660" y="349.74" as="targetPoint" />
          </mxGeometry>
        </mxCell>
        <mxCell id="6QwXeuThkFD-9IxJBqtr-128" value="" style="endArrow=none;html=1;rounded=0;strokeWidth=6;strokeColor=#7E3CF0;" parent="1" edge="1">
          <mxGeometry width="50" height="50" relative="1" as="geometry">
            <mxPoint x="1580" y="369.74" as="sourcePoint" />
            <mxPoint x="1660" y="369.74" as="targetPoint" />
          </mxGeometry>
        </mxCell>
        <mxCell id="6QwXeuThkFD-9IxJBqtr-129" value="" style="endArrow=none;html=1;rounded=0;strokeWidth=6;strokeColor=#7E3CF0;" parent="1" edge="1">
          <mxGeometry width="50" height="50" relative="1" as="geometry">
            <mxPoint x="1340" y="490" as="sourcePoint" />
            <mxPoint x="1420" y="490" as="targetPoint" />
          </mxGeometry>
        </mxCell>
        <mxCell id="6QwXeuThkFD-9IxJBqtr-130" value="" style="endArrow=none;html=1;rounded=0;strokeWidth=6;strokeColor=#7E3CF0;" parent="1" edge="1">
          <mxGeometry width="50" height="50" relative="1" as="geometry">
            <mxPoint x="1340" y="470" as="sourcePoint" />
            <mxPoint x="1420" y="470" as="targetPoint" />
          </mxGeometry>
        </mxCell>
        <mxCell id="6QwXeuThkFD-9IxJBqtr-131" value="" style="endArrow=none;html=1;rounded=0;strokeWidth=6;strokeColor=#7E3CF0;" parent="1" edge="1">
          <mxGeometry width="50" height="50" relative="1" as="geometry">
            <mxPoint x="1340" y="370" as="sourcePoint" />
            <mxPoint x="1420" y="370" as="targetPoint" />
          </mxGeometry>
        </mxCell>
        <mxCell id="6QwXeuThkFD-9IxJBqtr-132" value="" style="endArrow=none;html=1;rounded=0;strokeWidth=6;strokeColor=#7E3CF0;" parent="1" edge="1">
          <mxGeometry width="50" height="50" relative="1" as="geometry">
            <mxPoint x="1340" y="350" as="sourcePoint" />
            <mxPoint x="1420" y="350" as="targetPoint" />
          </mxGeometry>
        </mxCell>
        <mxCell id="6QwXeuThkFD-9IxJBqtr-133" value="" style="endArrow=none;html=1;rounded=0;strokeWidth=6;strokeColor=#7E3CF0;" parent="1" edge="1">
          <mxGeometry width="50" height="50" relative="1" as="geometry">
            <mxPoint x="860" y="490" as="sourcePoint" />
            <mxPoint x="940" y="490" as="targetPoint" />
          </mxGeometry>
        </mxCell>
        <mxCell id="6QwXeuThkFD-9IxJBqtr-134" value="" style="endArrow=none;html=1;rounded=0;strokeWidth=6;strokeColor=#7E3CF0;" parent="1" edge="1">
          <mxGeometry width="50" height="50" relative="1" as="geometry">
            <mxPoint x="860" y="470" as="sourcePoint" />
            <mxPoint x="940" y="470" as="targetPoint" />
          </mxGeometry>
        </mxCell>
        <mxCell id="6QwXeuThkFD-9IxJBqtr-135" value="" style="endArrow=none;html=1;rounded=0;strokeWidth=6;strokeColor=#7E3CF0;" parent="1" edge="1">
          <mxGeometry width="50" height="50" relative="1" as="geometry">
            <mxPoint x="860" y="350" as="sourcePoint" />
            <mxPoint x="940" y="350" as="targetPoint" />
          </mxGeometry>
        </mxCell>
        <mxCell id="6QwXeuThkFD-9IxJBqtr-136" value="" style="endArrow=none;html=1;rounded=0;strokeWidth=6;strokeColor=#7E3CF0;" parent="1" edge="1">
          <mxGeometry width="50" height="50" relative="1" as="geometry">
            <mxPoint x="860" y="370" as="sourcePoint" />
            <mxPoint x="940" y="370" as="targetPoint" />
          </mxGeometry>
        </mxCell>
        <mxCell id="6QwXeuThkFD-9IxJBqtr-137" value="" style="endArrow=none;html=1;rounded=0;strokeWidth=6;strokeColor=#7E3CF0;" parent="1" edge="1">
          <mxGeometry width="50" height="50" relative="1" as="geometry">
            <mxPoint x="1100" y="470" as="sourcePoint" />
            <mxPoint x="1180" y="470" as="targetPoint" />
          </mxGeometry>
        </mxCell>
        <mxCell id="6QwXeuThkFD-9IxJBqtr-138" value="" style="endArrow=none;html=1;rounded=0;strokeWidth=6;strokeColor=#7E3CF0;" parent="1" edge="1">
          <mxGeometry width="50" height="50" relative="1" as="geometry">
            <mxPoint x="1100" y="490" as="sourcePoint" />
            <mxPoint x="1180" y="490" as="targetPoint" />
          </mxGeometry>
        </mxCell>
        <mxCell id="6QwXeuThkFD-9IxJBqtr-139" value="" style="endArrow=none;html=1;rounded=0;strokeWidth=6;strokeColor=#7E3CF0;" parent="1" edge="1">
          <mxGeometry width="50" height="50" relative="1" as="geometry">
            <mxPoint x="1100" y="350" as="sourcePoint" />
            <mxPoint x="1180" y="350" as="targetPoint" />
          </mxGeometry>
        </mxCell>
        <mxCell id="6QwXeuThkFD-9IxJBqtr-140" value="" style="endArrow=none;html=1;rounded=0;strokeWidth=6;strokeColor=#7E3CF0;" parent="1" edge="1">
          <mxGeometry width="50" height="50" relative="1" as="geometry">
            <mxPoint x="1100" y="370" as="sourcePoint" />
            <mxPoint x="1180" y="370" as="targetPoint" />
          </mxGeometry>
        </mxCell>
        <mxCell id="6QwXeuThkFD-9IxJBqtr-141" value="" style="endArrow=none;html=1;rounded=0;strokeWidth=6;strokeColor=#FFFFFF;" parent="1" edge="1">
          <mxGeometry width="50" height="50" relative="1" as="geometry">
            <mxPoint x="1660" y="440" as="sourcePoint" />
            <mxPoint x="1660" y="440" as="targetPoint" />
            <Array as="points">
              <mxPoint x="1660" y="500" />
              <mxPoint x="1700" y="580" />
              <mxPoint x="1660" y="620" />
              <mxPoint x="1460" y="620" />
              <mxPoint x="1420" y="580" />
              <mxPoint x="1220" y="580" />
              <mxPoint x="1140" y="660" />
              <mxPoint x="900" y="660" />
              <mxPoint x="820" y="580" />
              <mxPoint x="740" y="580" />
              <mxPoint x="700" y="620" />
              <mxPoint x="620" y="620" />
              <mxPoint x="580" y="580" />
              <mxPoint x="380" y="580" />
              <mxPoint x="260" y="500" />
              <mxPoint x="260" y="340" />
              <mxPoint x="380" y="260" />
              <mxPoint x="580" y="260" />
              <mxPoint x="620" y="220" />
              <mxPoint x="700" y="220" />
              <mxPoint x="740" y="260" />
              <mxPoint x="820" y="260" />
              <mxPoint x="900" y="180" />
              <mxPoint x="1140" y="180" />
              <mxPoint x="1220" y="260" />
              <mxPoint x="1420" y="260" />
              <mxPoint x="1460" y="220" />
              <mxPoint x="1660" y="220" />
              <mxPoint x="1700" y="260" />
              <mxPoint x="1660" y="340" />
            </Array>
          </mxGeometry>
        </mxCell>
        <mxCell id="6QwXeuThkFD-9IxJBqtr-142" value="" style="rounded=0;whiteSpace=wrap;html=1;strokeColor=#C2C2C2;fillColor=none;strokeWidth=8;" parent="1" vertex="1">
          <mxGeometry x="700" y="340" width="160" height="160" as="geometry" />
        </mxCell>
        <mxCell id="6QwXeuThkFD-9IxJBqtr-143" value="" style="rounded=0;whiteSpace=wrap;html=1;strokeColor=#C2C2C2;fillColor=none;strokeWidth=8;" parent="1" vertex="1">
          <mxGeometry x="1180" y="340" width="160" height="160" as="geometry" />
        </mxCell>
        <mxCell id="6QwXeuThkFD-9IxJBqtr-144" value="" style="rounded=0;whiteSpace=wrap;html=1;strokeColor=#C2C2C2;fillColor=none;strokeWidth=8;" parent="1" vertex="1">
          <mxGeometry x="940" y="230" width="160" height="160" as="geometry" />
        </mxCell>
        <mxCell id="6QwXeuThkFD-9IxJBqtr-145" value="" style="rounded=0;whiteSpace=wrap;html=1;strokeColor=#C2C2C2;fillColor=none;strokeWidth=8;" parent="1" vertex="1">
          <mxGeometry x="940" y="450" width="160" height="160" as="geometry" />
        </mxCell>
        <mxCell id="6QwXeuThkFD-9IxJBqtr-146" value="" style="rounded=0;whiteSpace=wrap;html=1;strokeColor=#C2C2C2;fillColor=none;strokeWidth=8;" parent="1" vertex="1">
          <mxGeometry x="1420" y="340" width="160" height="160" as="geometry" />
        </mxCell>
        <mxCell id="6QwXeuThkFD-9IxJBqtr-147" value="" style="endArrow=none;html=1;rounded=0;strokeWidth=6;strokeColor=#62BCF0;" parent="1" edge="1">
          <mxGeometry width="50" height="50" relative="1" as="geometry">
            <mxPoint x="950" y="440" as="sourcePoint" />
            <mxPoint x="950" y="400" as="targetPoint" />
          </mxGeometry>
        </mxCell>
        <mxCell id="6QwXeuThkFD-9IxJBqtr-148" value="" style="endArrow=none;html=1;rounded=0;strokeWidth=6;strokeColor=#62BCF0;" parent="1" edge="1">
          <mxGeometry width="50" height="50" relative="1" as="geometry">
            <mxPoint x="970" y="440" as="sourcePoint" />
            <mxPoint x="970" y="400" as="targetPoint" />
          </mxGeometry>
        </mxCell>
        <mxCell id="6QwXeuThkFD-9IxJBqtr-149" value="" style="endArrow=none;html=1;rounded=0;strokeWidth=6;strokeColor=#62BCF0;" parent="1" edge="1">
          <mxGeometry width="50" height="50" relative="1" as="geometry">
            <mxPoint x="1090" y="440" as="sourcePoint" />
            <mxPoint x="1090" y="400" as="targetPoint" />
          </mxGeometry>
        </mxCell>
        <mxCell id="6QwXeuThkFD-9IxJBqtr-150" value="" style="endArrow=none;html=1;rounded=0;strokeWidth=6;strokeColor=#62BCF0;" parent="1" edge="1">
          <mxGeometry width="50" height="50" relative="1" as="geometry">
            <mxPoint x="1070" y="440" as="sourcePoint" />
            <mxPoint x="1070" y="400" as="targetPoint" />
          </mxGeometry>
        </mxCell>
        <mxCell id="6QwXeuThkFD-9IxJBqtr-151" value="" style="endArrow=none;html=1;rounded=0;strokeWidth=6;strokeColor=#62BCF0;" parent="1" edge="1">
          <mxGeometry width="50" height="50" relative="1" as="geometry">
            <mxPoint x="1030" y="440" as="sourcePoint" />
            <mxPoint x="1030" y="400" as="targetPoint" />
          </mxGeometry>
        </mxCell>
        <mxCell id="6QwXeuThkFD-9IxJBqtr-152" value="" style="endArrow=none;html=1;rounded=0;strokeWidth=6;strokeColor=#62BCF0;" parent="1" edge="1">
          <mxGeometry width="50" height="50" relative="1" as="geometry">
            <mxPoint x="1010" y="440" as="sourcePoint" />
            <mxPoint x="1010" y="400" as="targetPoint" />
          </mxGeometry>
        </mxCell>
        <mxCell id="6QwXeuThkFD-9IxJBqtr-153" value="" style="ellipse;whiteSpace=wrap;html=1;fillColor=none;strokeWidth=6;strokeColor=#B6F0EA;" parent="1" vertex="1">
          <mxGeometry x="870" y="390" width="60" height="60" as="geometry" />
        </mxCell>
        <mxCell id="6QwXeuThkFD-9IxJBqtr-154" value="" style="ellipse;whiteSpace=wrap;html=1;fillColor=none;strokeWidth=6;strokeColor=#B6F0EA;" parent="1" vertex="1">
          <mxGeometry x="1110" y="390" width="60" height="60" as="geometry" />
        </mxCell>
        <mxCell id="6QwXeuThkFD-9IxJBqtr-155" value="" style="ellipse;whiteSpace=wrap;html=1;fillColor=none;strokeWidth=6;strokeColor=#B6F0EA;" parent="1" vertex="1">
          <mxGeometry x="1350" y="390" width="60" height="60" as="geometry" />
        </mxCell>
        <mxCell id="6QwXeuThkFD-9IxJBqtr-156" value="" style="endArrow=none;html=1;rounded=0;strokeWidth=6;strokeColor=#F08A24;" parent="1" edge="1">
          <mxGeometry width="50" height="50" relative="1" as="geometry">
            <mxPoint x="1235" y="565" as="sourcePoint" />
            <mxPoint x="1235" y="515" as="targetPoint" />
          </mxGeometry>
        </mxCell>
        <mxCell id="6QwXeuThkFD-9IxJBqtr-157" value="" style="endArrow=none;html=1;rounded=0;strokeWidth=6;strokeColor=#F08A24;" parent="1" edge="1">
          <mxGeometry width="50" height="50" relative="1" as="geometry">
            <mxPoint x="1250" y="565" as="sourcePoint" />
            <mxPoint x="1250" y="515" as="targetPoint" />
          </mxGeometry>
        </mxCell>
        <mxCell id="6QwXeuThkFD-9IxJBqtr-158" value="" style="endArrow=none;html=1;rounded=0;strokeWidth=6;strokeColor=#F08A24;" parent="1" edge="1">
          <mxGeometry width="50" height="50" relative="1" as="geometry">
            <mxPoint x="1285" y="565" as="sourcePoint" />
            <mxPoint x="1285" y="515" as="targetPoint" />
          </mxGeometry>
        </mxCell>
        <mxCell id="6QwXeuThkFD-9IxJBqtr-159" value="" style="endArrow=none;html=1;rounded=0;strokeWidth=6;strokeColor=#F08A24;" parent="1" edge="1">
          <mxGeometry width="50" height="50" relative="1" as="geometry">
            <mxPoint x="1270" y="565" as="sourcePoint" />
            <mxPoint x="1270" y="515" as="targetPoint" />
          </mxGeometry>
        </mxCell>
        <mxCell id="6QwXeuThkFD-9IxJBqtr-160" value="" style="endArrow=none;html=1;rounded=0;strokeWidth=6;strokeColor=#F08A24;" parent="1" edge="1">
          <mxGeometry width="50" height="50" relative="1" as="geometry">
            <mxPoint x="1234.71" y="325" as="sourcePoint" />
            <mxPoint x="1234.71" y="275" as="targetPoint" />
          </mxGeometry>
        </mxCell>
        <mxCell id="6QwXeuThkFD-9IxJBqtr-161" value="" style="endArrow=none;html=1;rounded=0;strokeWidth=6;strokeColor=#F08A24;" parent="1" edge="1">
          <mxGeometry width="50" height="50" relative="1" as="geometry">
            <mxPoint x="1249.71" y="325" as="sourcePoint" />
            <mxPoint x="1249.71" y="275" as="targetPoint" />
          </mxGeometry>
        </mxCell>
        <mxCell id="6QwXeuThkFD-9IxJBqtr-162" value="" style="endArrow=none;html=1;rounded=0;strokeWidth=6;strokeColor=#F08A24;" parent="1" edge="1">
          <mxGeometry width="50" height="50" relative="1" as="geometry">
            <mxPoint x="1284.71" y="325" as="sourcePoint" />
            <mxPoint x="1284.71" y="275" as="targetPoint" />
          </mxGeometry>
        </mxCell>
        <mxCell id="6QwXeuThkFD-9IxJBqtr-163" value="" style="endArrow=none;html=1;rounded=0;strokeWidth=6;strokeColor=#F08A24;" parent="1" edge="1">
          <mxGeometry width="50" height="50" relative="1" as="geometry">
            <mxPoint x="1269.71" y="325" as="sourcePoint" />
            <mxPoint x="1269.71" y="275" as="targetPoint" />
          </mxGeometry>
        </mxCell>
        <mxCell id="6QwXeuThkFD-9IxJBqtr-164" value="" style="endArrow=none;html=1;rounded=0;strokeWidth=6;strokeColor=#F08A24;" parent="1" edge="1">
          <mxGeometry width="50" height="50" relative="1" as="geometry">
            <mxPoint x="754.86" y="565" as="sourcePoint" />
            <mxPoint x="754.86" y="515" as="targetPoint" />
          </mxGeometry>
        </mxCell>
        <mxCell id="6QwXeuThkFD-9IxJBqtr-165" value="" style="endArrow=none;html=1;rounded=0;strokeWidth=6;strokeColor=#F08A24;" parent="1" edge="1">
          <mxGeometry width="50" height="50" relative="1" as="geometry">
            <mxPoint x="769.86" y="565" as="sourcePoint" />
            <mxPoint x="769.86" y="515" as="targetPoint" />
          </mxGeometry>
        </mxCell>
        <mxCell id="6QwXeuThkFD-9IxJBqtr-166" value="" style="endArrow=none;html=1;rounded=0;strokeWidth=6;strokeColor=#F08A24;" parent="1" edge="1">
          <mxGeometry width="50" height="50" relative="1" as="geometry">
            <mxPoint x="804.86" y="565" as="sourcePoint" />
            <mxPoint x="804.86" y="515" as="targetPoint" />
          </mxGeometry>
        </mxCell>
        <mxCell id="6QwXeuThkFD-9IxJBqtr-167" value="" style="endArrow=none;html=1;rounded=0;strokeWidth=6;strokeColor=#F08A24;" parent="1" edge="1">
          <mxGeometry width="50" height="50" relative="1" as="geometry">
            <mxPoint x="789.86" y="565" as="sourcePoint" />
            <mxPoint x="789.86" y="515" as="targetPoint" />
          </mxGeometry>
        </mxCell>
        <mxCell id="6QwXeuThkFD-9IxJBqtr-168" value="" style="endArrow=none;html=1;rounded=0;strokeWidth=6;strokeColor=#F08A24;" parent="1" edge="1">
          <mxGeometry width="50" height="50" relative="1" as="geometry">
            <mxPoint x="754.57" y="325" as="sourcePoint" />
            <mxPoint x="754.57" y="275" as="targetPoint" />
          </mxGeometry>
        </mxCell>
        <mxCell id="6QwXeuThkFD-9IxJBqtr-169" value="" style="endArrow=none;html=1;rounded=0;strokeWidth=6;strokeColor=#F08A24;" parent="1" edge="1">
          <mxGeometry width="50" height="50" relative="1" as="geometry">
            <mxPoint x="769.57" y="325" as="sourcePoint" />
            <mxPoint x="769.57" y="275" as="targetPoint" />
          </mxGeometry>
        </mxCell>
        <mxCell id="6QwXeuThkFD-9IxJBqtr-170" value="" style="endArrow=none;html=1;rounded=0;strokeWidth=6;strokeColor=#F08A24;" parent="1" edge="1">
          <mxGeometry width="50" height="50" relative="1" as="geometry">
            <mxPoint x="804.57" y="325" as="sourcePoint" />
            <mxPoint x="804.57" y="275" as="targetPoint" />
          </mxGeometry>
        </mxCell>
        <mxCell id="6QwXeuThkFD-9IxJBqtr-171" value="" style="endArrow=none;html=1;rounded=0;strokeWidth=6;strokeColor=#F08A24;" parent="1" edge="1">
          <mxGeometry width="50" height="50" relative="1" as="geometry">
            <mxPoint x="789.57" y="325" as="sourcePoint" />
            <mxPoint x="789.57" y="275" as="targetPoint" />
          </mxGeometry>
        </mxCell>
        <mxCell id="6QwXeuThkFD-9IxJBqtr-172" value="" style="ellipse;whiteSpace=wrap;html=1;fillColor=none;strokeWidth=6;strokeColor=#B6F0EA;" parent="1" vertex="1">
          <mxGeometry x="1590" y="390" width="60" height="60" as="geometry" />
        </mxCell>
        <mxCell id="6QwXeuThkFD-9IxJBqtr-173" value="" style="ellipse;whiteSpace=wrap;html=1;fillColor=none;strokeWidth=6;strokeColor=#B6F0EA;" parent="1" vertex="1">
          <mxGeometry x="390" y="389.8" width="60" height="60" as="geometry" />
        </mxCell>
        <mxCell id="6QwXeuThkFD-9IxJBqtr-174" value="" style="endArrow=none;html=1;rounded=0;strokeWidth=6;strokeColor=#5D5C5E;" parent="1" edge="1">
          <mxGeometry width="50" height="50" relative="1" as="geometry">
            <mxPoint x="270" y="420.16" as="sourcePoint" />
            <mxPoint x="380" y="419.96000000000004" as="targetPoint" />
          </mxGeometry>
        </mxCell>
        <mxCell id="6QwXeuThkFD-9IxJBqtr-175" value="" style="endArrow=none;html=1;rounded=0;strokeWidth=6;strokeColor=#5D5C5E;" parent="1" edge="1">
          <mxGeometry width="50" height="50" relative="1" as="geometry">
            <mxPoint x="1480" y="580" as="sourcePoint" />
            <mxPoint x="1640" y="580" as="targetPoint" />
          </mxGeometry>
        </mxCell>
        <mxCell id="6QwXeuThkFD-9IxJBqtr-176" value="" style="endArrow=none;html=1;rounded=0;strokeWidth=6;strokeColor=#5D5C5E;" parent="1" edge="1">
          <mxGeometry width="50" height="50" relative="1" as="geometry">
            <mxPoint x="1460" y="560" as="sourcePoint" />
            <mxPoint x="1630" y="560" as="targetPoint" />
          </mxGeometry>
        </mxCell>
        <mxCell id="6QwXeuThkFD-9IxJBqtr-177" value="" style="endArrow=none;html=1;rounded=0;strokeWidth=6;strokeColor=#5D5C5E;" parent="1" edge="1">
          <mxGeometry width="50" height="50" relative="1" as="geometry">
            <mxPoint x="1440" y="540" as="sourcePoint" />
            <mxPoint x="1620" y="540" as="targetPoint" />
          </mxGeometry>
        </mxCell>
        <mxCell id="6QwXeuThkFD-9IxJBqtr-178" value="" style="endArrow=none;html=1;rounded=0;strokeWidth=6;strokeColor=#5D5C5E;" parent="1" edge="1">
          <mxGeometry width="50" height="50" relative="1" as="geometry">
            <mxPoint x="1480" y="260.00000000000006" as="sourcePoint" />
            <mxPoint x="1640" y="260.00000000000006" as="targetPoint" />
          </mxGeometry>
        </mxCell>
        <mxCell id="6QwXeuThkFD-9IxJBqtr-179" value="" style="endArrow=none;html=1;rounded=0;strokeWidth=6;strokeColor=#5D5C5E;" parent="1" edge="1">
          <mxGeometry width="50" height="50" relative="1" as="geometry">
            <mxPoint x="1460" y="280.00000000000006" as="sourcePoint" />
            <mxPoint x="1630" y="280.00000000000006" as="targetPoint" />
          </mxGeometry>
        </mxCell>
        <mxCell id="6QwXeuThkFD-9IxJBqtr-180" value="" style="endArrow=none;html=1;rounded=0;strokeWidth=6;strokeColor=#5D5C5E;" parent="1" edge="1">
          <mxGeometry width="50" height="50" relative="1" as="geometry">
            <mxPoint x="1440" y="299.58000000000004" as="sourcePoint" />
            <mxPoint x="1620" y="299.58000000000004" as="targetPoint" />
          </mxGeometry>
        </mxCell>
        <mxCell id="6QwXeuThkFD-9IxJBqtr-182" value="" style="endArrow=none;html=1;rounded=0;strokeWidth=6;strokeColor=#7E3CF0;" parent="1" edge="1">
          <mxGeometry width="50" height="50" relative="1" as="geometry">
            <mxPoint x="620" y="489.8" as="sourcePoint" />
            <mxPoint x="700" y="489.8" as="targetPoint" />
          </mxGeometry>
        </mxCell>
        <mxCell id="6QwXeuThkFD-9IxJBqtr-183" value="" style="endArrow=none;html=1;rounded=0;strokeWidth=6;strokeColor=#7E3CF0;" parent="1" edge="1">
          <mxGeometry width="50" height="50" relative="1" as="geometry">
            <mxPoint x="620" y="469.8" as="sourcePoint" />
            <mxPoint x="700" y="469.8" as="targetPoint" />
          </mxGeometry>
        </mxCell>
        <mxCell id="6QwXeuThkFD-9IxJBqtr-184" value="" style="endArrow=none;html=1;rounded=0;strokeWidth=6;strokeColor=#7E3CF0;" parent="1" edge="1">
          <mxGeometry width="50" height="50" relative="1" as="geometry">
            <mxPoint x="620" y="349.8" as="sourcePoint" />
            <mxPoint x="700" y="349.8" as="targetPoint" />
          </mxGeometry>
        </mxCell>
        <mxCell id="6QwXeuThkFD-9IxJBqtr-185" value="" style="endArrow=none;html=1;rounded=0;strokeWidth=6;strokeColor=#7E3CF0;" parent="1" edge="1">
          <mxGeometry width="50" height="50" relative="1" as="geometry">
            <mxPoint x="620" y="369.8" as="sourcePoint" />
            <mxPoint x="700" y="369.8" as="targetPoint" />
          </mxGeometry>
        </mxCell>
        <mxCell id="6QwXeuThkFD-9IxJBqtr-187" value="" style="ellipse;whiteSpace=wrap;html=1;fillColor=none;strokeWidth=6;strokeColor=#B6F0EA;" parent="1" vertex="1">
          <mxGeometry x="630" y="389.8" width="60" height="60" as="geometry" />
        </mxCell>
        <mxCell id="6QwXeuThkFD-9IxJBqtr-188" value="" style="rounded=0;whiteSpace=wrap;html=1;strokeColor=#C2C2C2;fillColor=none;strokeWidth=8;" parent="1" vertex="1">
          <mxGeometry x="460" y="339.58" width="160" height="160" as="geometry" />
        </mxCell>
        <mxCell id="6QwXeuThkFD-9IxJBqtr-189" value="" style="endArrow=none;html=1;rounded=0;strokeWidth=6;strokeColor=#F08A24;" parent="1" edge="1">
          <mxGeometry width="50" height="50" relative="1" as="geometry">
            <mxPoint x="514.81" y="565" as="sourcePoint" />
            <mxPoint x="514.81" y="515" as="targetPoint" />
          </mxGeometry>
        </mxCell>
        <mxCell id="6QwXeuThkFD-9IxJBqtr-190" value="" style="endArrow=none;html=1;rounded=0;strokeWidth=6;strokeColor=#F08A24;" parent="1" edge="1">
          <mxGeometry width="50" height="50" relative="1" as="geometry">
            <mxPoint x="529.81" y="565" as="sourcePoint" />
            <mxPoint x="529.81" y="515" as="targetPoint" />
          </mxGeometry>
        </mxCell>
        <mxCell id="6QwXeuThkFD-9IxJBqtr-191" value="" style="endArrow=none;html=1;rounded=0;strokeWidth=6;strokeColor=#F08A24;" parent="1" edge="1">
          <mxGeometry width="50" height="50" relative="1" as="geometry">
            <mxPoint x="564.81" y="565" as="sourcePoint" />
            <mxPoint x="564.81" y="515" as="targetPoint" />
          </mxGeometry>
        </mxCell>
        <mxCell id="6QwXeuThkFD-9IxJBqtr-192" value="" style="endArrow=none;html=1;rounded=0;strokeWidth=6;strokeColor=#F08A24;" parent="1" edge="1">
          <mxGeometry width="50" height="50" relative="1" as="geometry">
            <mxPoint x="549.81" y="565" as="sourcePoint" />
            <mxPoint x="549.81" y="515" as="targetPoint" />
          </mxGeometry>
        </mxCell>
        <mxCell id="6QwXeuThkFD-9IxJBqtr-193" value="" style="endArrow=none;html=1;rounded=0;strokeWidth=6;strokeColor=#F08A24;" parent="1" edge="1">
          <mxGeometry width="50" height="50" relative="1" as="geometry">
            <mxPoint x="514.52" y="325" as="sourcePoint" />
            <mxPoint x="514.52" y="275" as="targetPoint" />
          </mxGeometry>
        </mxCell>
        <mxCell id="6QwXeuThkFD-9IxJBqtr-194" value="" style="endArrow=none;html=1;rounded=0;strokeWidth=6;strokeColor=#F08A24;" parent="1" edge="1">
          <mxGeometry width="50" height="50" relative="1" as="geometry">
            <mxPoint x="529.52" y="325" as="sourcePoint" />
            <mxPoint x="529.52" y="275" as="targetPoint" />
          </mxGeometry>
        </mxCell>
        <mxCell id="6QwXeuThkFD-9IxJBqtr-195" value="" style="endArrow=none;html=1;rounded=0;strokeWidth=6;strokeColor=#F08A24;" parent="1" edge="1">
          <mxGeometry width="50" height="50" relative="1" as="geometry">
            <mxPoint x="564.52" y="325" as="sourcePoint" />
            <mxPoint x="564.52" y="275" as="targetPoint" />
          </mxGeometry>
        </mxCell>
        <mxCell id="6QwXeuThkFD-9IxJBqtr-196" value="" style="endArrow=none;html=1;rounded=0;strokeWidth=6;strokeColor=#F08A24;" parent="1" edge="1">
          <mxGeometry width="50" height="50" relative="1" as="geometry">
            <mxPoint x="549.52" y="325" as="sourcePoint" />
            <mxPoint x="549.52" y="275" as="targetPoint" />
          </mxGeometry>
        </mxCell>
        <mxCell id="6QwXeuThkFD-9IxJBqtr-197" value="" style="endArrow=none;html=1;rounded=0;strokeWidth=6;strokeColor=#5D5C5E;" parent="1" edge="1">
          <mxGeometry width="50" height="50" relative="1" as="geometry">
            <mxPoint x="640" y="600" as="sourcePoint" />
            <mxPoint x="640" y="510" as="targetPoint" />
          </mxGeometry>
        </mxCell>
        <mxCell id="6QwXeuThkFD-9IxJBqtr-198" value="" style="endArrow=none;html=1;rounded=0;strokeWidth=6;strokeColor=#5D5C5E;" parent="1" edge="1">
          <mxGeometry width="50" height="50" relative="1" as="geometry">
            <mxPoint x="659.7" y="600" as="sourcePoint" />
            <mxPoint x="659.7" y="510" as="targetPoint" />
          </mxGeometry>
        </mxCell>
        <mxCell id="6QwXeuThkFD-9IxJBqtr-199" value="" style="endArrow=none;html=1;rounded=0;strokeWidth=6;strokeColor=#5D5C5E;" parent="1" edge="1">
          <mxGeometry width="50" height="50" relative="1" as="geometry">
            <mxPoint x="639.78" y="330" as="sourcePoint" />
            <mxPoint x="639.78" y="240" as="targetPoint" />
          </mxGeometry>
        </mxCell>
        <mxCell id="6QwXeuThkFD-9IxJBqtr-200" value="" style="endArrow=none;html=1;rounded=0;strokeWidth=6;strokeColor=#5D5C5E;" parent="1" edge="1">
          <mxGeometry width="50" height="50" relative="1" as="geometry">
            <mxPoint x="679.78" y="330" as="sourcePoint" />
            <mxPoint x="679.78" y="240" as="targetPoint" />
          </mxGeometry>
        </mxCell>
        <mxCell id="6QwXeuThkFD-9IxJBqtr-201" value="" style="endArrow=none;html=1;rounded=0;strokeWidth=6;strokeColor=#5D5C5E;" parent="1" edge="1">
          <mxGeometry width="50" height="50" relative="1" as="geometry">
            <mxPoint x="680" y="600" as="sourcePoint" />
            <mxPoint x="680" y="510" as="targetPoint" />
          </mxGeometry>
        </mxCell>
        <mxCell id="6QwXeuThkFD-9IxJBqtr-202" value="" style="endArrow=none;html=1;rounded=0;strokeWidth=6;strokeColor=#5D5C5E;" parent="1" edge="1">
          <mxGeometry width="50" height="50" relative="1" as="geometry">
            <mxPoint x="659.7" y="330" as="sourcePoint" />
            <mxPoint x="659.7" y="240" as="targetPoint" />
          </mxGeometry>
        </mxCell>
      </root>
    </mxGraphModel>
  </diagram>
</mxfile>
